<!--
  Canada outline adapted from the SVG map of Canada by Fla-shop.com,
  used under CC-BY-4.0. https://www.fla-shop.com
  Simplified (Douglas-Peucker, eps 9) and cropped for icon use.
-->
<svg xmlns="http://www.w3.org/2000/svg" viewBox="41 16 1941 1628">
  <style>
    .ink { stroke: #1a1a1a; }
    @media (prefers-color-scheme: dark) {
      .ink { stroke: #e9e2d4; }
    }
  </style>

  <defs>
    <clipPath id="land"><path d="M1661,1246 1640,1246 1615,1274 1674,1246 1675,1278 1687,1274 1723,1306 1769,1294 1779,1278 1808,1286 1764,1350 1744,1358 1731,1410 1711,1410 1701,1374 1747,1318 1713,1334 1714,1314 1679,1366 1652,1374 1597,1302 1584,1318 1588,1306 1572,1310 1562,1406 1527,1434 1468,1450 1489,1430 1491,1402 1545,1342 1557,1294 1593,1238 1658,1199 1676,1218 1661,1246Z M1806,999 1799,1015 1810,1019 1820,1079 1822,1055 1846,1071 1898,1043 1906,1071 1924,1055 1914,1087 1926,1099 1937,1099 1937,1071 1941,1091 1948,1079 1959,1087 1967,1123 1945,1119 1940,1131 1923,1099 1912,1151 1898,1159 1904,1127 1893,1123 1896,1135 1879,1131 1807,1183 1785,1051 1785,1019 1806,999Z M656,390 644,417 666,405 685,422 673,434 698,436 693,413 702,416 716,472 727,405 752,424 756,503 800,548 797,560 762,556 784,586 740,586 719,559 676,583 620,579 621,550 584,528 581,501 660,512 632,489 585,480 579,463 620,454 580,435 598,405 656,390Z M1038,402 1053,450 1061,428 1092,448 1075,435 1091,433 1078,418 1113,412 1117,439 1132,426 1133,451 1142,433 1149,455 1157,434 1173,436 1171,467 1187,446 1184,477 1199,450 1198,461 1224,454 1213,477 1242,465 1250,475 1232,489 1265,495 1237,499 1253,505 1238,522 1277,520 1269,530 1299,538 1311,524 1332,552 1350,540 1349,555 1364,540 1382,546 1386,560 1371,565 1387,575 1373,595 1385,623 1344,611 1346,587 1333,605 1298,592 1314,615 1289,613 1330,646 1364,646 1367,662 1400,680 1390,690 1416,725 1324,707 1397,741 1399,756 1295,749 1282,727 1232,716 1218,700 1224,717 1202,715 1190,735 1167,732 1167,689 1224,671 1203,648 1214,623 1242,618 1252,639 1276,612 1242,598 1241,613 1218,619 1220,595 1197,564 1160,540 1142,562 1149,538 1088,495 1098,523 1059,525 1070,536 1045,523 1059,531 1048,539 960,522 951,503 1011,499 1008,471 990,461 1009,455 989,430 1008,428 990,418 1008,418 992,409 1025,386 1038,402Z M939,574 949,614 960,575 979,589 979,624 999,654 1025,586 1010,552 1049,543 1059,551 1043,551 1071,561 1057,583 1076,577 1060,590 1088,645 1063,677 1034,658 1059,685 1011,680 1025,693 1007,727 956,711 980,731 1015,734 992,783 966,787 958,809 906,793 946,804 960,825 931,836 938,847 911,872 891,932 890,991 898,1003 922,999 936,1075 980,1059 1103,1119 1173,1119 1189,1199 1248,1254 1265,1258 1271,1238 1285,1242 1285,1206 1236,1119 1299,1043 1285,1043 1262,987 1218,959 1227,900 1202,872 1195,804 1249,802 1262,786 1310,804 1313,818 1352,824 1355,811 1375,872 1389,876 1389,904 1406,884 1432,900 1442,892 1457,857 1456,800 1512,838 1513,852 1543,861 1550,880 1572,884 1579,920 1619,920 1629,940 1657,924 1702,928 1667,999 1689,947 1708,936 1725,959 1747,940 1788,983 1779,1019 1747,1051 1736,1107 1592,1183 1539,1338 1489,1398 1488,1426 1412,1517 1346,1545 1339,1561 1361,1557 1368,1569 1303,1593 1259,1629 1252,1617 1283,1569 1284,1513 1270,1497 1306,1517 1320,1517 1323,1497 1282,1466 1182,1466 1160,1410 1141,1414 1117,1382 1068,1382 1071,1398 1062,1402 1063,1390 1038,1422 988,1426 905,1402 893,1378 888,1394 726,1386 399,1330 178,1250 203,1254 176,1246 181,1226 172,1234 152,1199 160,1187 129,1167 134,1151 107,1131 111,1103 140,1083 120,1079 131,1019 112,1027 107,999 108,979 149,928 127,888 133,743 116,735 79,745 87,679 56,657 289,363 331,445 337,418 363,415 374,434 427,431 378,443 400,452 455,443 457,428 466,488 491,467 483,494 520,490 560,538 598,558 608,578 584,597 630,613 659,608 683,641 689,679 687,623 726,595 680,601 720,582 740,621 758,619 773,638 822,640 828,626 848,644 827,615 847,609 865,623 863,657 876,660 874,672 859,667 877,673 875,627 902,605 896,590 886,598 901,569 860,544 860,499 883,470 926,540 914,541 913,561 939,574Z M1072,31 1094,37 1057,77 1070,74 1055,93 1086,68 1067,116 1053,115 1065,123 1048,131 1063,129 1062,141 1014,172 1045,175 1010,184 1045,184 1033,199 1048,200 1034,209 1045,215 1022,247 996,241 1000,257 1038,257 1037,275 1016,293 996,274 1001,286 972,285 980,295 942,297 937,285 934,296 930,279 954,265 938,243 972,257 988,227 978,249 960,236 963,215 960,230 942,231 946,206 985,208 975,200 988,191 962,196 972,194 940,155 990,171 966,149 1016,118 992,124 1003,102 976,138 942,146 943,131 964,120 929,144 917,135 948,119 911,133 924,116 896,113 945,100 929,93 937,85 978,97 982,89 956,82 973,63 999,68 986,57 1006,50 1017,67 1017,43 1053,34 1044,47 1072,31Z"/></clipPath>
  </defs>

  <!-- burn-intensity contours, clipped to the landmass -->
  <g class="ink" clip-path="url(#land)" fill="none" stroke-width="45" opacity="0.7">
    <ellipse cx="640" cy="900" rx="215" ry="157" transform="rotate(-18 640 900)"/>
    <ellipse cx="640" cy="900" rx="430" ry="314" transform="rotate(-18 640 900)"/>
    <ellipse cx="640" cy="900" rx="645" ry="471" transform="rotate(-18 640 900)"/>
    <ellipse cx="640" cy="900" rx="860" ry="628" transform="rotate(-18 640 900)"/>
  </g>

  <!-- coastline -->
  <path class="ink" d="M1661,1246 1640,1246 1615,1274 1674,1246 1675,1278 1687,1274 1723,1306 1769,1294 1779,1278 1808,1286 1764,1350 1744,1358 1731,1410 1711,1410 1701,1374 1747,1318 1713,1334 1714,1314 1679,1366 1652,1374 1597,1302 1584,1318 1588,1306 1572,1310 1562,1406 1527,1434 1468,1450 1489,1430 1491,1402 1545,1342 1557,1294 1593,1238 1658,1199 1676,1218 1661,1246Z M1806,999 1799,1015 1810,1019 1820,1079 1822,1055 1846,1071 1898,1043 1906,1071 1924,1055 1914,1087 1926,1099 1937,1099 1937,1071 1941,1091 1948,1079 1959,1087 1967,1123 1945,1119 1940,1131 1923,1099 1912,1151 1898,1159 1904,1127 1893,1123 1896,1135 1879,1131 1807,1183 1785,1051 1785,1019 1806,999Z M656,390 644,417 666,405 685,422 673,434 698,436 693,413 702,416 716,472 727,405 752,424 756,503 800,548 797,560 762,556 784,586 740,586 719,559 676,583 620,579 621,550 584,528 581,501 660,512 632,489 585,480 579,463 620,454 580,435 598,405 656,390Z M1038,402 1053,450 1061,428 1092,448 1075,435 1091,433 1078,418 1113,412 1117,439 1132,426 1133,451 1142,433 1149,455 1157,434 1173,436 1171,467 1187,446 1184,477 1199,450 1198,461 1224,454 1213,477 1242,465 1250,475 1232,489 1265,495 1237,499 1253,505 1238,522 1277,520 1269,530 1299,538 1311,524 1332,552 1350,540 1349,555 1364,540 1382,546 1386,560 1371,565 1387,575 1373,595 1385,623 1344,611 1346,587 1333,605 1298,592 1314,615 1289,613 1330,646 1364,646 1367,662 1400,680 1390,690 1416,725 1324,707 1397,741 1399,756 1295,749 1282,727 1232,716 1218,700 1224,717 1202,715 1190,735 1167,732 1167,689 1224,671 1203,648 1214,623 1242,618 1252,639 1276,612 1242,598 1241,613 1218,619 1220,595 1197,564 1160,540 1142,562 1149,538 1088,495 1098,523 1059,525 1070,536 1045,523 1059,531 1048,539 960,522 951,503 1011,499 1008,471 990,461 1009,455 989,430 1008,428 990,418 1008,418 992,409 1025,386 1038,402Z M939,574 949,614 960,575 979,589 979,624 999,654 1025,586 1010,552 1049,543 1059,551 1043,551 1071,561 1057,583 1076,577 1060,590 1088,645 1063,677 1034,658 1059,685 1011,680 1025,693 1007,727 956,711 980,731 1015,734 992,783 966,787 958,809 906,793 946,804 960,825 931,836 938,847 911,872 891,932 890,991 898,1003 922,999 936,1075 980,1059 1103,1119 1173,1119 1189,1199 1248,1254 1265,1258 1271,1238 1285,1242 1285,1206 1236,1119 1299,1043 1285,1043 1262,987 1218,959 1227,900 1202,872 1195,804 1249,802 1262,786 1310,804 1313,818 1352,824 1355,811 1375,872 1389,876 1389,904 1406,884 1432,900 1442,892 1457,857 1456,800 1512,838 1513,852 1543,861 1550,880 1572,884 1579,920 1619,920 1629,940 1657,924 1702,928 1667,999 1689,947 1708,936 1725,959 1747,940 1788,983 1779,1019 1747,1051 1736,1107 1592,1183 1539,1338 1489,1398 1488,1426 1412,1517 1346,1545 1339,1561 1361,1557 1368,1569 1303,1593 1259,1629 1252,1617 1283,1569 1284,1513 1270,1497 1306,1517 1320,1517 1323,1497 1282,1466 1182,1466 1160,1410 1141,1414 1117,1382 1068,1382 1071,1398 1062,1402 1063,1390 1038,1422 988,1426 905,1402 893,1378 888,1394 726,1386 399,1330 178,1250 203,1254 176,1246 181,1226 172,1234 152,1199 160,1187 129,1167 134,1151 107,1131 111,1103 140,1083 120,1079 131,1019 112,1027 107,999 108,979 149,928 127,888 133,743 116,735 79,745 87,679 56,657 289,363 331,445 337,418 363,415 374,434 427,431 378,443 400,452 455,443 457,428 466,488 491,467 483,494 520,490 560,538 598,558 608,578 584,597 630,613 659,608 683,641 689,679 687,623 726,595 680,601 720,582 740,621 758,619 773,638 822,640 828,626 848,644 827,615 847,609 865,623 863,657 876,660 874,672 859,667 877,673 875,627 902,605 896,590 886,598 901,569 860,544 860,499 883,470 926,540 914,541 913,561 939,574Z M1072,31 1094,37 1057,77 1070,74 1055,93 1086,68 1067,116 1053,115 1065,123 1048,131 1063,129 1062,141 1014,172 1045,175 1010,184 1045,184 1033,199 1048,200 1034,209 1045,215 1022,247 996,241 1000,257 1038,257 1037,275 1016,293 996,274 1001,286 972,285 980,295 942,297 937,285 934,296 930,279 954,265 938,243 972,257 988,227 978,249 960,236 963,215 960,230 942,231 946,206 985,208 975,200 988,191 962,196 972,194 940,155 990,171 966,149 1016,118 992,124 1003,102 976,138 942,146 943,131 964,120 929,144 917,135 948,119 911,133 924,116 896,113 945,100 929,93 937,85 978,97 982,89 956,82 973,63 999,68 986,57 1006,50 1017,67 1017,43 1053,34 1044,47 1072,31Z" fill="none" stroke-width="75" stroke-linejoin="round"/>

  <!-- boreal hotspot -->
  <circle cx="640" cy="900" r="150" fill="#dd6f1e"/>
</svg>
